<?xml version="1.0" encoding="UTF-8" standalone="no"?><!DOCTYPE svg PUBLIC "-//W3C//DTD SVG 1.1//EN" "http://www.w3.org/Graphics/SVG/1.1/DTD/svg11.dtd"><svg width="100%" height="100%" viewBox="0 0 2047 491" version="1.1" xmlns="http://www.w3.org/2000/svg" xmlns:xlink="http://www.w3.org/1999/xlink" xml:space="preserve" xmlns:serif="http://www.serif.com/" style="fill-rule:evenodd;clip-rule:evenodd;stroke-linejoin:round;stroke-miterlimit:2;"><path d="M66.709,120.833c34.955,0.866 59.96,3.115 75.015,6.749c16.094,3.98 29.418,12.373 39.974,25.178c10.556,13.152 15.834,29.764 15.834,49.837c-26.995,4.5 -52.52,11.335 -76.573,20.506c-3.98,-19.208 -14.363,-30.975 -31.148,-35.301c-3.115,31.321 -4.673,52.865 -4.673,64.633c0,8.652 2.51,15.747 7.528,21.284c5.018,5.538 12.978,10.21 23.88,14.017c11.248,4.153 21.458,6.23 30.629,6.23c14.536,-0 28.293,-8.48 41.272,-25.438l1.038,1.038c-10.037,28.207 -22.496,48.799 -37.378,61.777c-14.709,12.979 -36.686,19.468 -65.93,19.468c-21.804,0 -39.368,-4.413 -52.693,-13.238c-13.151,-8.825 -21.976,-19.641 -26.476,-32.446c-4.672,-12.805 -7.008,-29.764 -7.008,-50.875c0,-21.804 0.865,-48.886 2.596,-81.245c20.073,-18.689 41.444,-36.08 64.113,-52.174Z" style="fill:#fff;fill-rule:nonzero;"/><path d="M228.62,31.681l87.735,-27.514l-2.596,98.636l-0,63.854l41.79,-43.348l3.115,-0c35.302,10.902 58.576,22.409 69.824,34.522c11.248,12.287 16.872,33.398 16.872,63.335c0,10.556 -1.644,28.899 -4.932,55.029c-1.903,13.843 -3.461,33.484 -4.672,58.922c-25.265,20.938 -53.471,40.838 -84.619,59.7c7.614,-61.604 12.026,-101.145 13.238,-118.622l-9.604,-61.518c-0.866,-3.807 -5.884,-18.949 -15.055,-45.425c-11.94,15.747 -20.593,26.39 -25.957,31.927l-0,65.671c-0,0.865 -0.173,7.008 -0.519,18.429c-0.519,10.556 -0.779,19.122 -0.779,25.698c0,5.364 0.433,15.574 1.298,30.629c-18.516,0.692 -49.491,4.239 -92.926,10.642c2.596,-21.111 4.413,-48.885 5.451,-83.321c0.866,-34.61 1.644,-113.691 2.336,-237.246Z" style="fill:#fff;fill-rule:nonzero;"/><path d="M554.947,187.556l5.711,102.01c9.517,-10.555 18.948,-22.452 28.293,-35.69c9.344,-13.238 17.304,-25.654 23.88,-37.248c-9.518,-13.671 -28.812,-23.361 -57.884,-29.072Zm1.038,-62.556c2.596,0.692 18.257,3.72 46.982,9.085c25.957,4.672 43.089,8.306 51.395,10.902c8.133,2.942 15.834,7.614 23.101,14.016c7.268,6.403 12.719,15.402 16.353,26.996c3.634,11.421 5.451,26.908 5.451,46.462l-1.298,76.314c0,8.998 0.866,19.554 2.596,31.667c-16.093,2.596 -45.597,10.037 -88.513,22.323c3.115,-23.707 4.672,-56.327 4.672,-97.858c-2.941,4.846 -11.507,15.055 -25.697,30.63c-14.19,15.574 -34.436,36.858 -60.739,63.853c-20.246,-5.364 -35.82,-10.555 -46.722,-15.574c-0.692,-6.575 -2.077,-16.785 -4.153,-30.629c-2.942,-21.631 -4.413,-41.185 -4.413,-58.662c-0,-25.265 5.278,-46.55 15.834,-63.854c10.209,-17.132 31.927,-39.022 65.151,-65.671Z" style="fill:#fff;fill-rule:nonzero;"/><path d="M729.167,236.64l-0,-21.804l171.315,-2.336l-0,29.85l-171.315,-5.71Z" style="fill:#fff;fill-rule:nonzero;"/><path d="M995.876,120.833c34.955,0.866 59.96,3.115 75.015,6.749c16.093,3.98 29.418,12.373 39.974,25.178c10.555,13.152 15.833,29.764 15.833,49.837c-26.995,4.5 -52.519,11.335 -76.572,20.506c-3.98,-19.208 -14.363,-30.975 -31.149,-35.301c-3.114,31.321 -4.672,52.865 -4.672,64.633c0,8.652 2.509,15.747 7.528,21.284c5.018,5.538 12.978,10.21 23.88,14.017c11.248,4.153 21.458,6.23 30.629,6.23c14.536,-0 28.293,-8.48 41.271,-25.438l1.039,1.038c-10.037,28.207 -22.496,48.799 -37.378,61.777c-14.709,12.979 -36.686,19.468 -65.931,19.468c-21.803,0 -39.367,-4.413 -52.692,-13.238c-13.151,-8.825 -21.977,-19.641 -26.476,-32.446c-4.672,-12.805 -7.008,-29.764 -7.008,-50.875c-0,-21.804 0.865,-48.886 2.595,-81.245c20.074,-18.689 41.445,-36.08 64.114,-52.174Z" style="fill:#fff;fill-rule:nonzero;"/><path d="M1157.79,31.681l87.734,-27.514l-2.595,98.636l-0,63.854l41.79,-43.348l3.115,-0c35.301,10.902 58.576,22.409 69.824,34.522c11.248,12.287 16.872,33.398 16.872,63.335c-0,10.556 -1.644,28.899 -4.932,55.029c-1.903,13.843 -3.461,33.484 -4.672,58.922c-25.265,20.938 -53.471,40.838 -84.62,59.7c7.614,-61.604 12.027,-101.145 13.238,-118.622l-9.604,-61.518c-0.865,-3.807 -5.883,-18.949 -15.055,-45.425c-11.94,15.747 -20.592,26.39 -25.956,31.927l-0,65.671c-0,0.865 -0.173,7.008 -0.52,18.429c-0.519,10.556 -0.778,19.122 -0.778,25.698c-0,5.364 0.432,15.574 1.298,30.629c-18.516,0.692 -49.492,4.239 -92.926,10.642c2.596,-21.111 4.413,-48.885 5.451,-83.321c0.865,-34.61 1.644,-113.691 2.336,-237.246Z" style="fill:#fff;fill-rule:nonzero;"/><path d="M1400,197.939l7.008,-32.446c34.783,-5.711 74.67,-19.208 119.661,-40.493l0,45.684l-0.778,19.468c-0,2.595 0.086,4.932 0.259,7.008c0.173,5.711 0.26,13.584 0.26,23.621c-0,4.499 0.086,8.133 0.259,10.902l1.817,45.684c0.347,9.863 1.644,32.013 3.894,66.449c-35.647,6.23 -66.623,10.902 -92.926,14.017c2.423,-21.804 3.634,-54.25 3.634,-97.338l-1.038,-65.152c-7.268,2.942 -15.055,4.413 -23.361,4.413c-6.23,-0 -12.459,-0.606 -18.689,-1.817Z" style="fill:#fff;fill-rule:nonzero;"/><path d="M1642.5,129.918l24.919,-7.527l-0,34.003c4.845,-2.942 13.498,-7.96 25.957,-15.055c4.153,-2.249 8.22,-4.672 12.2,-7.268l22.063,-13.238c16.093,2.25 28.379,5.019 36.859,8.307c8.133,3.287 14.882,8.219 20.246,14.795c5.191,6.403 8.739,12.892 10.642,19.468c1.731,5.883 2.596,15.66 2.596,29.331c-0,16.266 -1.557,35.474 -4.672,57.624c-3.288,23.534 -5.105,43.781 -5.451,60.739l-48.02,30.629l-7.268,4.932c-13.844,9.518 -25.178,16.007 -34.004,19.468c10.037,-47.934 15.055,-85.485 15.055,-112.653c0,-32.706 -7.181,-61.431 -21.544,-86.177c-0.519,0.692 -3.634,3.807 -9.344,9.345l-4.673,5.191l-10.642,10.642l1.298,149.252c-28.207,0.865 -57.538,5.019 -87.994,12.459c0,-8.998 0.087,-14.968 0.26,-17.91c0.346,-10.729 0.519,-17.131 0.519,-19.208l-0,-5.97c-0.519,-7.268 -0.779,-12.373 -0.779,-15.314l0,-61.259c0,-30.975 -0.519,-58.749 -1.557,-83.321c2.249,-0.692 4.845,-1.514 7.787,-2.466c2.942,-0.952 6.273,-2.033 9.993,-3.245c3.721,-1.211 7.657,-2.595 11.81,-4.153l33.744,-11.421Z" style="fill:#fff;fill-rule:nonzero;"/><path d="M1906.76,178.212l0,115.248c6.749,-3.98 17.391,-17.478 31.927,-40.493c14.709,-23.361 22.929,-37.897 24.659,-43.607c-21.112,-16.959 -39.974,-27.341 -56.586,-31.148Zm-6.23,-53.212c51.395,-0 88.6,7.181 111.615,21.544c22.669,14.363 34.003,36.426 34.003,66.19c0,13.671 -1.038,31.321 -3.114,52.952l-6.23,73.199c-1.038,21.976 -2.509,37.81 -4.413,47.501c-1.73,9.171 -6.835,20.852 -15.314,35.041c-8.133,13.844 -19.035,27.428 -32.706,40.753c-14.363,13.67 -24.14,21.803 -29.331,24.399c-6.23,2.942 -15.661,4.413 -28.293,4.413c-39.628,-0 -69.738,-9.604 -90.33,-28.812l-4.413,-53.731l41.012,-38.935c13.844,23.707 42.569,37.897 86.177,42.569l-1.298,-66.969c-0.865,-39.627 -1.557,-62.037 -2.076,-67.228c-11.768,16.266 -28.899,33.83 -51.395,52.692c-9.171,7.96 -15.055,14.19 -17.651,18.689c-13.67,-1.557 -30.456,-6.835 -50.356,-15.833c0,0.173 -1.384,-5.797 -4.153,-17.911c-4.845,-19.554 -7.268,-37.464 -7.268,-53.73c-0,-20.074 3.201,-36.167 9.604,-48.28c6.057,-11.767 16.439,-26.476 31.148,-44.127c18.343,-21.284 29.937,-36.08 34.782,-44.386Z" style="fill:#fff;fill-rule:nonzero;"/><path d="M1470.36,429.273l0,9.532c-4.247,2.427 -8.367,3.641 -12.359,3.641c-5.461,-0 -10.243,-2.052 -14.347,-6.156c-4.103,-4.103 -6.155,-8.854 -6.155,-14.251c-0,-6.131 2.044,-11.217 6.132,-15.257c4.087,-4.039 9.213,-6.059 15.376,-6.059c3.673,-0 7.457,0.958 11.353,2.874l0,9.293c-4.183,-2.683 -8.143,-4.024 -11.88,-4.024c-3.449,0 -6.467,1.214 -9.053,3.641c-2.587,2.427 -3.88,5.269 -3.88,8.526c-0,3.673 1.213,6.763 3.64,9.27c2.427,2.506 5.397,3.76 8.91,3.76c3.577,-0 7.664,-1.597 12.263,-4.79Zm10.203,-50.106l8.335,-0l0,29.124c2.3,-2.65 4.447,-4.574 6.443,-5.772c1.996,-1.197 4.431,-1.796 7.305,-1.796c3.354,-0 6.252,1.285 8.695,3.856c2.443,2.571 3.664,5.644 3.664,9.221l0,27.544l-8.335,0l0,-25.197c0,-2.491 -0.631,-4.486 -1.892,-5.987c-1.261,-1.501 -2.93,-2.252 -5.006,-2.252c-3.002,0 -5.564,1.134 -7.688,3.401c-2.124,2.268 -3.186,5.014 -3.186,8.239l0,21.796l-8.335,0l0,-62.177Zm54.034,22.658l0,8.143c1.853,-3.257 3.665,-5.613 5.437,-7.066c1.773,-1.453 4.08,-2.179 6.922,-2.179c0.799,-0 1.948,0.191 3.449,0.575l-2.539,8.335c-1.596,-0.32 -2.65,-0.479 -3.161,-0.479c-2.811,-0 -5.166,0.982 -7.066,2.946c-1.9,1.964 -2.85,4.415 -2.85,7.353l-0,21.891l-8.335,0l-0,-39.519l8.143,-0Zm19.257,19.592c0,-5.397 2.132,-10.196 6.395,-14.395c4.263,-4.199 9.157,-6.299 14.682,-6.299c5.685,-0 10.651,2.068 14.898,6.203c4.247,4.136 6.371,8.966 6.371,14.491c-0,5.556 -2.084,10.45 -6.251,14.682c-4.168,4.231 -8.982,6.347 -14.443,6.347c-5.844,-0 -10.914,-2.092 -15.209,-6.275c-4.295,-4.184 -6.443,-9.102 -6.443,-14.754Zm34.298,0.024c0,-3.36 -1.277,-6.28 -3.832,-8.759c-2.555,-2.48 -5.589,-3.72 -9.101,-3.72c-3.609,0 -6.715,1.256 -9.317,3.768c-2.603,2.511 -3.904,5.511 -3.904,8.998c-0,3.328 1.317,6.24 3.952,8.735c2.634,2.496 5.724,3.744 9.269,3.744c3.449,-0 6.466,-1.28 9.053,-3.839c2.587,-2.56 3.88,-5.536 3.88,-8.927Zm15.425,19.903l-0,-39.519l8.143,-0l0,6.562c2.395,-2.65 4.567,-4.59 6.515,-5.82c1.948,-1.229 4.12,-1.844 6.515,-1.844c3.577,-0 6.634,1.181 9.173,3.545c2.539,2.363 3.808,5.205 3.808,8.526l0,28.55l-8.335,0l0,-26.107c0,-2.139 -0.694,-3.912 -2.083,-5.317c-1.39,-1.405 -3.154,-2.108 -5.294,-2.108c-2.778,0 -5.173,1.174 -7.185,3.521c-2.012,2.347 -3.018,5.182 -3.018,8.503l0,21.508l-8.239,0Zm42.968,-52.501c0,-1.725 0.639,-3.217 1.917,-4.479c1.277,-1.261 2.794,-1.892 4.55,-1.892c1.725,-0 3.218,0.631 4.479,1.892c1.262,1.262 1.892,2.754 1.892,4.479c0,1.756 -0.63,3.257 -1.892,4.503c-1.261,1.245 -2.754,1.868 -4.479,1.868c-1.756,-0 -3.273,-0.623 -4.55,-1.868c-1.278,-1.246 -1.917,-2.747 -1.917,-4.503Zm2.348,12.982l8.239,-0l-0,39.519l-8.239,0l-0,-39.519Zm50.345,27.448l0,9.532c-4.247,2.427 -8.367,3.641 -12.359,3.641c-5.461,-0 -10.243,-2.052 -14.346,-6.156c-4.104,-4.103 -6.156,-8.854 -6.156,-14.251c0,-6.131 2.044,-11.217 6.132,-15.257c4.087,-4.039 9.213,-6.059 15.376,-6.059c3.673,-0 7.457,0.958 11.353,2.874l0,9.293c-4.183,-2.683 -8.143,-4.024 -11.88,-4.024c-3.449,0 -6.466,1.214 -9.053,3.641c-2.587,2.427 -3.88,5.269 -3.88,8.526c-0,3.673 1.213,6.763 3.64,9.27c2.427,2.506 5.397,3.76 8.91,3.76c3.577,-0 7.665,-1.597 12.263,-4.79Zm9.293,-50.106l8.335,-0l0,62.177l-8.335,0l0,-62.177Zm59.783,44.022l-33.724,0c0.735,4.056 2.403,7.018 5.006,8.886c2.603,1.868 5.437,2.802 8.503,2.802c4.726,0 8.686,-1.964 11.88,-5.892l6.083,4.599c-4.567,5.908 -10.682,8.862 -18.347,8.862c-5.876,-0 -10.794,-2.012 -14.753,-6.036c-3.96,-4.024 -5.94,-9.022 -5.94,-14.993c-0,-5.589 2.004,-10.435 6.011,-14.539c4.008,-4.103 8.902,-6.155 14.682,-6.155c5.685,-0 10.555,2.084 14.611,6.251c4.055,4.168 6.051,9.573 5.988,16.215Zm-32.862,-6.658l24.143,-0c-2.682,-5.429 -6.642,-8.144 -11.88,-8.144c-5.716,0 -9.804,2.715 -12.263,8.144Zm66.297,-10.012l-5.556,4.886c-1.437,-1.022 -2.683,-1.796 -3.737,-2.323c-1.053,-0.527 -2.299,-0.791 -3.736,-0.791c-3.385,0 -5.078,1.246 -5.078,3.737c0,1.788 2.148,3.525 6.443,5.209c4.295,1.685 7.385,3.532 9.269,5.542c1.885,2.009 2.827,4.434 2.827,7.273c-0,3.318 -1.358,6.213 -4.072,8.685c-2.715,2.473 -5.908,3.709 -9.581,3.709c-5.588,-0 -10.171,-2.587 -13.748,-7.76l6.563,-3.162c2.299,2.236 4.694,3.353 7.185,3.353c1.725,0 3.234,-0.471 4.527,-1.413c1.294,-0.942 1.94,-2.036 1.94,-3.281c0,-2.204 -2.267,-4.186 -6.802,-5.946c-4.535,-1.761 -7.672,-3.542 -9.413,-5.346c-1.74,-1.803 -2.61,-4.029 -2.61,-6.678c-0,-3.288 1.237,-6.024 3.712,-8.21c2.475,-2.187 5.581,-3.28 9.317,-3.28c3.736,-0 7.92,1.932 12.55,5.796Z" style="fill:url(#_Linear1);"/><path d="M1463.69,99.067c-24.099,-0 -43.706,-19.607 -43.706,-43.708c0,-24.098 19.607,-43.705 43.706,-43.705c24.1,0 43.707,19.607 43.707,43.705c0,24.101 -19.607,43.708 -43.707,43.708Zm-0,-99.067c-30.526,0 -55.36,24.834 -55.36,55.359c0,30.528 24.834,55.362 55.36,55.362c30.528,0 55.361,-24.834 55.361,-55.362c0,-30.525 -24.833,-55.359 -55.361,-55.359Z" style="fill:url(#_Linear2);fill-rule:nonzero;"/><path d="M1455.1,44.518c-0.623,0.878 -0.935,1.824 -0.935,2.838l-0,0.031c-0,1.396 0.512,2.581 1.538,3.553c1.004,0.954 2.724,1.723 5.154,2.308l0,-11.581c-1.125,0.114 -2.115,0.356 -2.965,0.725c-1.237,0.54 -2.168,1.247 -2.792,2.126Z" style="fill:url(#_Linear3);fill-rule:nonzero;"/><path d="M1466.67,62.5l-0,12.083c1.411,-0.096 2.599,-0.338 3.568,-0.725c1.302,-0.517 2.253,-1.232 2.856,-2.142c0.601,-0.91 0.902,-1.934 0.902,-3.077l0,-0.062c0,-1.503 -0.512,-2.729 -1.536,-3.681c-1.019,-0.943 -2.95,-1.741 -5.79,-2.396Z" style="fill:url(#_Linear4);fill-rule:nonzero;"/><path d="M1481.31,65.43c0,2.791 -0.735,5.153 -2.207,7.09c-1.468,1.933 -3.456,3.404 -5.962,4.408c-2.043,0.818 -4.301,1.304 -6.773,1.455l0,5.318l-3.425,-0l-0,-5.318c-2.446,-0.148 -4.673,-0.624 -6.677,-1.424c-2.464,-0.983 -4.439,-2.404 -5.931,-4.265c-1.492,-1.861 -2.331,-4.094 -2.521,-6.695l-0.034,-0.442l7.392,-0l0.065,0.348c0.21,1.162 0.675,2.22 1.393,3.171c0.72,0.951 1.751,1.697 3.093,2.238c0.907,0.364 1.98,0.603 3.22,0.722l-0,-12.81l-1.775,-0.395c-4.125,-0.907 -7.249,-2.347 -9.375,-4.315c-2.123,-1.965 -3.186,-4.577 -3.186,-7.833l-0,-0.063c-0,-2.56 0.68,-4.784 2.045,-6.676c1.364,-1.895 3.251,-3.358 5.661,-4.395c1.983,-0.85 4.192,-1.352 6.63,-1.503l-0,-5.317l3.425,-0l0,5.328c2.337,0.158 4.445,0.634 6.329,1.429c2.357,0.993 4.239,2.409 5.645,4.25c1.406,1.84 2.207,4.028 2.396,6.567l0.031,0.507l-7.391,0l-0.031,-0.286c-0.19,-1.333 -0.666,-2.458 -1.427,-3.378c-0.762,-0.921 -1.765,-1.622 -3.012,-2.108c-0.77,-0.302 -1.617,-0.507 -2.54,-0.624l0,12.314l1.937,0.426c4.291,0.931 7.532,2.352 9.72,4.265c2.188,1.916 3.285,4.564 3.285,7.946l0,0.065Zm-16.766,-48.763c-21.806,-0 -39.547,17.741 -39.547,39.546c-0,21.809 17.741,39.55 39.547,39.55c21.808,-0 39.549,-17.741 39.549,-39.55c0,-21.805 -17.741,-39.546 -39.549,-39.546Z" style="fill:url(#_Linear5);fill-rule:nonzero;"/><defs><linearGradient id="_Linear1" x1="0" y1="0" x2="1" y2="0" gradientUnits="userSpaceOnUse" gradientTransform="matrix(1826.56,0,0,317.415,238.672,566.911)"><stop offset="0" style="stop-color:#aa8c60;stop-opacity:1"/><stop offset="0.2" style="stop-color:#b19466;stop-opacity:1"/><stop offset="0.7" style="stop-color:#ebd6a7;stop-opacity:1"/><stop offset="0.8" style="stop-color:#e5cfa0;stop-opacity:1"/><stop offset="1" style="stop-color:#aa8c60;stop-opacity:1"/></linearGradient><linearGradient id="_Linear2" x1="0" y1="0" x2="1" y2="0" gradientUnits="userSpaceOnUse" gradientTransform="matrix(110.721,0,0,110.721,1408.33,55.3605)"><stop offset="0" style="stop-color:#aa8c60;stop-opacity:1"/><stop offset="0.2" style="stop-color:#b19466;stop-opacity:1"/><stop offset="0.7" style="stop-color:#ebd6a7;stop-opacity:1"/><stop offset="0.8" style="stop-color:#e5cfa0;stop-opacity:1"/><stop offset="1" style="stop-color:#aa8c60;stop-opacity:1"/></linearGradient><linearGradient id="_Linear3" x1="0" y1="0" x2="1" y2="0" gradientUnits="userSpaceOnUse" gradientTransform="matrix(110.721,0,0,110.721,1407.1,57.4908)"><stop offset="0" style="stop-color:#aa8c60;stop-opacity:1"/><stop offset="0.2" style="stop-color:#b19466;stop-opacity:1"/><stop offset="0.7" style="stop-color:#ebd6a7;stop-opacity:1"/><stop offset="0.8" style="stop-color:#e5cfa0;stop-opacity:1"/><stop offset="1" style="stop-color:#aa8c60;stop-opacity:1"/></linearGradient><linearGradient id="_Linear4" x1="0" y1="0" x2="1" y2="0" gradientUnits="userSpaceOnUse" gradientTransform="matrix(110.721,0,0,110.721,1409.48,58.7275)"><stop offset="0" style="stop-color:#aa8c60;stop-opacity:1"/><stop offset="0.2" style="stop-color:#b19466;stop-opacity:1"/><stop offset="0.7" style="stop-color:#ebd6a7;stop-opacity:1"/><stop offset="0.8" style="stop-color:#e5cfa0;stop-opacity:1"/><stop offset="1" style="stop-color:#aa8c60;stop-opacity:1"/></linearGradient><linearGradient id="_Linear5" x1="0" y1="0" x2="1" y2="0" gradientUnits="userSpaceOnUse" gradientTransform="matrix(110.721,0,0,110.721,1409.19,56.2147)"><stop offset="0" style="stop-color:#aa8c60;stop-opacity:1"/><stop offset="0.2" style="stop-color:#b19466;stop-opacity:1"/><stop offset="0.7" style="stop-color:#ebd6a7;stop-opacity:1"/><stop offset="0.8" style="stop-color:#e5cfa0;stop-opacity:1"/><stop offset="1" style="stop-color:#aa8c60;stop-opacity:1"/></linearGradient></defs></svg>